<svg xmlns="http://www.w3.org/2000/svg" version="1.1" xmlns:xlink="http://www.w3.org/1999/xlink" xmlns:svgjs="http://svgjs.com/svgjs" width="1440" height="560" preserveAspectRatio="none" viewBox="0 0 1440 560"><g mask="url(&quot;#SvgjsMask1021&quot;)" fill="none"><rect width="1440" height="560" x="0" y="0" fill="rgba(73, 73, 72, 1)"></rect><path d="M514.8716462640696 422.77635209609247L583.7672282082161 521.3692896003597 629.8589900040562 426.8671733251909z" fill="rgba(69, 4, 207, 0.4)" class="triangle-float2"></path><path d="M144.84503777241335 371.7399201503834L282.22772441913855 381.3466534438232 291.83445771257834 243.96396679709792 154.4517710658531 234.35723350365816z" fill="rgba(69, 4, 207, 0.4)" class="triangle-float1"></path><path d="M1342.09,60.222C1364.099,58.962,1380.677,42.799,1391.931,23.843C1403.494,4.367,1411.096,-18.663,1400.944,-38.911C1389.842,-61.054,1366.846,-76.397,1342.09,-75.562C1318.476,-74.766,1301.512,-55.642,1289.733,-35.161C1277.998,-14.757,1269.95,9.545,1281.276,30.179C1292.937,51.423,1317.896,61.607,1342.09,60.222" fill="rgba(69, 4, 207, 0.4)" class="triangle-float2"></path><path d="M1096.74 76.81 a180.45 180.45 0 1 0 360.9 0 a180.45 180.45 0 1 0 -360.9 0z" fill="rgba(69, 4, 207, 0.4)" class="triangle-float2"></path><path d="M779.672,389.507C828.027,390.377,883.229,383.418,905.945,340.722C927.933,299.393,898.122,253.445,873.117,213.868C850.488,178.053,822.037,140.795,779.672,140.864C737.388,140.933,708.696,178.027,686.755,214.173C663.614,252.295,640.146,296.913,661.028,336.318C682.779,377.363,733.228,388.672,779.672,389.507" fill="rgba(69, 4, 207, 0.4)" class="triangle-float3"></path><path d="M116.38 540.25 a94.81 94.81 0 1 0 189.62 0 a94.81 94.81 0 1 0 -189.62 0z" fill="rgba(69, 4, 207, 0.4)" class="triangle-float3"></path><path d="M1002.66 442.66 a97.77 97.77 0 1 0 195.54 0 a97.77 97.77 0 1 0 -195.54 0z" fill="rgba(69, 4, 207, 0.4)" class="triangle-float1"></path><path d="M636.7542771086584 502.3023480351228L645.5526394389076 586.0131738454169 766.7196969892241 530.960217444896z" fill="rgba(69, 4, 207, 0.4)" class="triangle-float2"></path><path d="M1273.424594964089 375.521076999696L1163.1857744629094 447.1110040982995 1234.775701561513 557.3498245994791 1345.0145220626925 485.75989750087564z" fill="rgba(69, 4, 207, 0.4)" class="triangle-float3"></path><path d="M1104.5428607401032 316.73330857533074L1075.8969716548881 404.89628982064517 1164.0599529002027 433.5421789058601 1192.7058419854175 345.37919766054574z" fill="rgba(69, 4, 207, 0.4)" class="triangle-float3"></path><path d="M243.07 78.31 a126.91 126.91 0 1 0 253.82 0 a126.91 126.91 0 1 0 -253.82 0z" fill="rgba(69, 4, 207, 0.4)" class="triangle-float2"></path><path d="M446.851916954782 102.03130495210567L521.8878246791234 237.39966584695745 657.2561855739751 162.3637581226161 582.2202778496337 26.995397227764315z" fill="rgba(69, 4, 207, 0.4)" class="triangle-float3"></path><path d="M758.46 496.93 a166.02 166.02 0 1 0 332.04 0 a166.02 166.02 0 1 0 -332.04 0z" fill="rgba(69, 4, 207, 0.4)" class="triangle-float2"></path><path d="M432.328,55.01C452.25,54.457,472.5,48.7,483.052,31.793C494.186,13.952,493.502,-8.539,483.554,-27.067C473.01,-46.703,454.616,-62.705,432.328,-62.675C410.082,-62.645,392.406,-46.229,381.343,-26.929C370.351,-7.752,364.806,15.982,376.484,34.749C387.697,52.769,411.112,55.599,432.328,55.01" fill="rgba(69, 4, 207, 0.4)" class="triangle-float3"></path><path d="M1096.784,175.219C1113.351,175.198,1123.965,159.919,1132.625,145.795C1141.881,130.7,1152.687,113.261,1144.351,97.639C1135.735,81.493,1115.04,77.354,1096.784,78.632C1080.797,79.751,1067.066,89.449,1059.503,103.578C1052.366,116.911,1053.802,132.472,1060.783,145.887C1068.441,160.604,1080.194,175.24,1096.784,175.219" fill="rgba(69, 4, 207, 0.4)" class="triangle-float1"></path></g><defs><mask id="SvgjsMask1021"><rect width="1440" height="560" fill="#ffffff"></rect></mask><style>
            @keyframes float1 {
                0%{transform: translate(0, 0)}
                50%{transform: translate(-10px, 0)}
                100%{transform: translate(0, 0)}
            }

            .triangle-float1 {
                animation: float1 5s infinite;
            }

            @keyframes float2 {
                0%{transform: translate(0, 0)}
                50%{transform: translate(-5px, -5px)}
                100%{transform: translate(0, 0)}
            }

            .triangle-float2 {
                animation: float2 4s infinite;
            }

            @keyframes float3 {
                0%{transform: translate(0, 0)}
                50%{transform: translate(0, -10px)}
                100%{transform: translate(0, 0)}
            }

            .triangle-float3 {
                animation: float3 6s infinite;
            }
        </style></defs></svg>